<?xml version="1.0" encoding="utf-8"?>
<svg version="1.0" xmlns="http://www.w3.org/2000/svg" width="1260.000000pt" height="792.000000pt" viewBox="12.964 0 1230.537 792" preserveAspectRatio="xMidYMid meet" xmlns:bx="https://boxy-svg.com">
  <defs>
    <bx:export>
      <bx:file format="svg" path="Sem título.svg" units="pt"/>
    </bx:export>
  </defs>
  <g transform="matrix(0.125076, 0, 0, -0.125076, -144.635393, 894.605604)" fill="#000000" stroke="none" style="">
    <path d="M2550 7170 l-1305 -5 1 -1475 c1 -811 3 -1954 5 -2540 l4 -1065 1754 -3 c1397 -2 1756 0 1763 10 4 7 8 219 8 470 l0 457 28 19 c15 11 46 29 70 41 23 12 66 39 95 61 28 22 86 58 127 81 41 22 109 62 150 89 41 27 109 69 150 94 139 84 134 77 136 202 1 60 3 142 4 183 l3 75 -40 35 c-22 20 -53 46 -69 58 -62 47 -167 151 -205 203 -153 213 -209 472 -209 964 0 161 5 254 16 324 9 53 16 120 16 147 -1 71 24 186 57 258 16 34 33 73 40 87 6 14 15 32 21 40 5 8 15 26 20 40 42 100 189 242 325 315 28 14 69 37 93 51 192 114 678 168 1029 114 147 -22 172 -28 193 -45 8 -7 26 -15 40 -18 124 -28 241 -80 254 -112 3 -8 11 -15 19 -15 7 0 24 -11 37 -25 13 -14 28 -25 33 -25 19 0 126 -95 149 -133 13 -21 49 -79 81 -128 45 -69 61 -105 73 -161 9 -40 19 -82 24 -93 32 -74 51 -275 31 -314 l-13 -23 -301 3 c-306 3 -440 9 -452 20 -3 4 -7 15 -9 25 -42 201 -56 233 -136 308 -63 59 -135 91 -234 105 -97 14 -243 14 -251 1 -3 -5 -16 -10 -29 -10 -71 0 -228 -124 -269 -213 -52 -111 -55 -202 -56 -1659 l-1 -656 -91 -56 c-50 -31 -95 -56 -99 -56 -4 0 -43 -23 -86 -52 -79 -51 -405 -256 -457 -287 l-27 -16 2 -390 3 -390 1240 0 1240 0 3 387 2 387 -87 57 c-49 31 -113 73 -143 93 -49 32 -153 96 -280 175 -25 15 -92 55 -150 90 l-105 62 -3 213 -2 213 -27 -7 c-62 -15 -133 -24 -218 -27 l-90 -3 -2 309 c-1 190 2 315 8 322 5 6 24 14 42 17 62 10 132 51 192 112 65 67 73 88 99 255 l12 75 94 8 c52 4 228 6 390 5 l295 -3 -1 -115 c-1 -194 -63 -386 -173 -538 -59 -81 -180 -197 -261 -251 -30 -20 -58 -40 -62 -46 -4 -5 -8 -92 -8 -193 l0 -183 32 -30 c18 -16 36 -29 39 -29 4 0 45 -23 91 -51 46 -29 105 -65 133 -81 27 -17 68 -43 92 -59 23 -16 45 -29 48 -29 4 0 52 -30 107 -67 55 -38 120 -80 144 -94 25 -14 49 -30 55 -36 7 -7 11 -159 12 -466 1 -304 6 -460 13 -467 7 -7 513 -9 1655 -8 l1644 3 2 2543 3 2542 -918 0 c-504 0 -2143 1 -3642 3 -1499 1 -3312 0 -4030 -3z m298 -706 c13 -4 25 -17 28 -33 3 -14 14 -45 25 -68 10 -24 19 -50 19 -58 0 -9 8 -32 19 -53 10 -20 21 -57 25 -81 4 -24 12 -53 18 -65 7 -11 13 -30 15 -40 2 -11 7 -24 12 -30 14 -17 91 -250 91 -275 0 -30 30 -122 46 -141 12 -14 99 -269 121 -355 23 -89 59 -175 73 -175 6 0 13 8 16 18 3 9 12 31 21 47 21 42 53 145 53 175 1 43 186 591 229 677 12 23 21 55 21 70 1 15 8 46 16 68 8 22 18 49 20 60 3 11 10 29 14 40 5 11 16 46 25 77 8 31 20 60 25 63 6 3 10 17 10 30 0 56 -7 55 472 55 397 0 443 -2 460 -17 16 -14 18 -33 18 -154 0 -76 -4 -140 -8 -143 -9 -5 -8 -123 1 -132 3 -3 6 -499 7 -1101 0 -866 -2 -1102 -12 -1125 l-13 -28 -345 2 -345 3 -3 690 c-3 484 0 726 8 811 10 92 10 126 1 143 -7 12 -16 19 -20 16 -15 -9 -52 -96 -55 -128 -4 -40 -80 -287 -101 -329 -8 -17 -15 -39 -15 -48 0 -10 -12 -44 -27 -76 -15 -33 -30 -77 -34 -99 -4 -22 -30 -105 -58 -185 -28 -80 -63 -183 -77 -230 -14 -47 -34 -103 -45 -124 -10 -22 -19 -46 -19 -55 0 -8 -7 -23 -17 -33 -15 -16 -35 -18 -224 -18 -229 0 -231 1 -244 62 -4 18 -11 38 -15 43 -15 19 -60 140 -73 200 -8 33 -26 89 -41 125 -38 92 -42 101 -56 140 -15 42 -56 185 -74 257 -7 28 -27 84 -44 125 -17 40 -45 120 -62 178 -44 143 -63 192 -75 188 -7 -2 -8 -179 -5 -518 3 -283 5 -654 5 -825 l0 -310 -355 0 -355 0 -3 1335 c-1 734 0 1341 3 1348 3 9 101 12 442 12 241 0 448 -3 461 -6z m5896 0 c9 -3 16 -10 16 -14 0 -5 23 -47 50 -95 28 -48 50 -89 50 -92 0 -3 8 -17 19 -31 10 -15 28 -43 39 -62 20 -35 117 -202 211 -363 28 -49 51 -91 51 -94 0 -3 14 -29 32 -57 33 -54 57 -96 91 -161 48 -91 161 -280 169 -283 4 -2 8 -8 8 -12 0 -15 140 -264 153 -272 20 -12 24 37 16 182 -9 172 -13 1335 -4 1349 10 17 759 15 774 -2 7 -10 10 -391 8 -1348 l-2 -1334 -437 -3 -436 -2 -20 32 c-11 18 -31 53 -44 78 -55 101 -182 316 -194 330 -15 17 -79 130 -130 230 -19 36 -61 110 -93 165 -76 127 -185 317 -190 330 -2 6 -12 21 -21 35 -10 14 -37 63 -61 110 -24 47 -58 107 -77 135 -18 27 -43 69 -53 93 -11 24 -23 41 -26 38 -4 -3 -7 -358 -7 -788 l-1 -783 -390 0 -390 0 -3 1339 c-2 1065 0 1341 10 1348 15 9 858 11 882 2z"/>
    <path d="M9159 1736 c-2 -3 -33 -9 -67 -15 -186 -30 -305 -156 -342 -363 -16 -84 10 -252 51 -336 43 -88 133 -160 239 -191 25 -7 53 -17 62 -22 33 -17 151 -10 196 11 22 11 45 20 51 20 20 0 94 46 134 85 79 76 94 102 111 205 18 110 27 278 14 286 -4 3 -8 13 -8 22 0 9 -26 55 -58 102 -72 106 -138 154 -238 174 -108 22 -140 27 -145 22z m83 -222 c51 -20 69 -36 99 -89 30 -55 39 -202 15 -259 -9 -21 -16 -45 -16 -53 0 -31 -52 -83 -94 -94 -51 -14 -136 -6 -169 16 -38 24 -64 98 -76 215 -12 114 -7 146 30 206 44 71 121 92 211 58z"/>
    <path d="M3460 1723 c-88 -15 -191 -72 -235 -129 -87 -114 -97 -143 -98 -283 0 -146 13 -220 56 -309 44 -91 191 -182 293 -182 18 0 35 -4 39 -10 9 -14 105 -6 149 13 21 9 45 17 52 17 7 0 30 9 51 21 104 58 173 168 173 278 l0 42 -112 -3 -112 -3 -7 -33 c-4 -18 -16 -43 -28 -56 -11 -12 -21 -27 -21 -33 0 -17 -64 -43 -104 -43 -73 0 -156 57 -174 120 -12 41 -7 200 7 270 18 83 46 115 116 131 91 20 174 -29 196 -116 l11 -45 114 0 114 0 0 38 c-1 142 -114 270 -274 307 -58 14 -151 17 -206 8z"/>
    <path d="M7220 1720 c-69 -14 -119 -38 -184 -85 -59 -44 -69 -56 -95 -119 -40 -98 -42 -111 -42 -256 0 -105 4 -137 21 -184 48 -127 79 -164 191 -225 67 -36 166 -47 282 -31 164 24 255 98 323 265 27 65 29 79 27 192 l-1 122 -45 93 c-50 103 -94 151 -172 192 -81 42 -208 57 -305 36z m191 -213 c72 -38 90 -81 92 -229 2 -111 0 -128 -22 -171 -32 -66 -71 -90 -147 -95 -117 -8 -181 49 -204 182 -19 114 1 224 52 282 40 45 58 53 129 53 40 1 68 -6 100 -22z"/>
    <path d="M1261 1711 c-12 -8 -15 -78 -17 -423 -1 -227 1 -424 4 -437 4 -22 8 -23 60 -19 30 3 72 2 93 -2 20 -4 43 -4 49 0 8 5 11 82 11 269 0 143 3 261 7 261 5 0 15 -21 24 -47 9 -27 37 -106 63 -178 26 -71 53 -149 62 -172 14 -41 17 -43 56 -43 23 0 59 -5 81 -9 65 -16 60 -22 120 164 53 164 98 296 101 293 1 -2 5 -119 8 -261 3 -141 9 -262 12 -267 9 -15 202 -13 206 3 2 6 3 204 1 439 l-2 427 -141 3 c-78 2 -144 1 -148 -2 -14 -11 -30 -53 -101 -267 -41 -123 -77 -223 -80 -223 -6 0 -59 144 -100 275 -17 55 -36 109 -40 120 -5 11 -16 36 -23 56 -14 34 -18 36 -68 42 -79 10 -222 8 -238 -2z"/>
    <path d="M2284 1709 c-3 -5 7 -31 23 -57 28 -46 37 -64 83 -167 12 -27 48 -93 80 -145 32 -52 72 -123 89 -157 30 -61 31 -66 31 -203 0 -164 -10 -153 135 -148 l90 3 3 159 c2 133 5 163 20 185 10 14 26 42 36 61 37 75 113 208 144 252 17 26 32 52 32 58 0 12 46 99 61 114 5 6 9 18 9 28 0 16 -11 18 -117 18 l-118 -1 -41 -72 c-23 -40 -44 -85 -48 -100 -4 -16 -17 -45 -30 -65 -13 -20 -30 -52 -37 -70 -8 -17 -18 -31 -23 -29 -4 1 -46 78 -93 170 -77 153 -86 167 -111 168 -15 0 -69 2 -119 4 -51 2 -96 -1 -99 -6z"/>
    <path d="M4946 1713 c-3 -4 -6 -203 -6 -444 0 -340 3 -438 13 -441 6 -2 57 -2 112 1 l100 6 0 433 c0 377 -2 435 -15 442 -17 9 -195 11 -204 3z"/>
    <path d="M6128 1713 c-16 -4 -18 -17 -18 -99 l0 -94 125 0 125 0 1 -87 c0 -49 1 -200 2 -338 1 -153 6 -253 12 -257 17 -13 203 -8 214 5 6 8 11 139 13 331 4 376 -8 346 135 346 81 0 94 2 103 19 15 29 13 147 -4 163 -11 11 -79 14 -352 15 -187 0 -347 -2 -356 -4z"/>
    <path d="M7864 1708 c-7 -11 -5 -868 1 -879 4 -5 11 -6 17 -3 5 3 52 6 103 5 81 0 95 2 99 17 3 9 7 119 8 244 2 124 6 224 10 222 3 -2 23 -35 44 -72 20 -37 54 -92 74 -122 20 -30 56 -91 80 -135 23 -44 56 -97 72 -117 l30 -38 108 0 c76 0 111 4 117 13 4 6 8 204 8 440 l0 427 -111 0 -111 0 -6 -227 c-4 -125 -11 -231 -16 -236 -6 -6 -19 10 -35 44 -14 30 -43 79 -65 109 -22 30 -55 84 -73 120 -18 36 -47 86 -65 111 -18 26 -33 52 -33 58 0 6 -6 14 -13 17 -22 8 -238 10 -243 2z"/>
    <path d="M9898 1712 l-258 -2 0 -89 c0 -72 3 -90 16 -95 9 -3 62 -6 118 -6 l103 0 7 -147 c4 -82 6 -233 5 -337 -1 -150 1 -190 12 -197 19 -12 196 -11 218 0 16 9 17 28 14 229 -3 188 -2 221 12 232 18 15 19 49 2 71 -7 10 -11 41 -9 82 l4 66 116 3 117 3 6 85 c3 51 2 90 -4 98 -7 9 -39 12 -116 10 -58 -2 -222 -4 -363 -6z"/>
    <path d="M10486 1712 c-3 -3 -6 -202 -6 -443 l0 -438 318 -3 c217 -2 321 0 330 8 13 11 21 168 9 180 -3 3 -79 5 -169 5 -90 -1 -182 2 -205 5 l-43 6 0 79 0 79 133 1 c72 0 152 4 176 7 l43 7 3 73 c2 39 2 73 1 74 0 1 -82 4 -181 7 l-180 6 -3 78 -3 77 199 0 c150 0 202 3 210 13 9 10 8 165 -1 174 -6 5 -626 11 -631 5z"/>
    <path d="M4060 1583 c-2 -393 -2 -471 -1 -605 l1 -148 118 3 117 2 3 137 c2 92 6 139 15 146 6 5 35 12 64 15 l51 6 22 -52 c49 -118 116 -247 130 -253 25 -10 175 -17 214 -10 20 4 36 12 36 19 0 7 -26 57 -56 112 -31 55 -70 127 -86 160 l-30 60 23 15 c41 28 95 86 113 123 14 30 16 51 10 114 -12 139 -54 202 -170 255 -46 22 -63 23 -311 26 l-263 3 0 -128z m477 -83 c47 -30 37 -131 -17 -168 -30 -20 -44 -22 -124 -20 l-91 3 -3 103 -3 102 28 1 c15 0 37 4 48 8 24 9 132 -10 162 -29z"/>
    <path d="M5329 1623 c-5 -336 -6 -706 -2 -745 l6 -48 112 0 112 0 7 50 c4 28 4 83 0 123 -9 101 -7 103 148 110 143 7 179 16 245 60 71 47 108 126 108 227 -1 137 -49 226 -149 278 -50 25 -54 25 -318 30 l-268 4 -1 -89z m460 -119 c54 -38 59 -131 9 -180 -23 -23 -64 -28 -190 -25 l-48 1 0 79 c0 43 3 93 6 110 l7 31 96 0 c73 0 102 -4 120 -16z"/>
  </g>
</svg>